HIERARCHY
ROOT Hips
{
	OFFSET 0.000000 0.000000 0.000000
	CHANNELS 6 Xposition Yposition Zposition Xrotation Yrotation Zrotation
	JOINT LeftUpLeg_virtual
	{
		OFFSET 0.000000 0.000000 0.000000
		CHANNELS 3 Xrotation Yrotation Zrotation
		JOINT LeftUpLeg
		{
			OFFSET 11.394100 -6.187798 -0.413800
			CHANNELS 3 Xrotation Yrotation Zrotation
			JOINT LeftLeg
			{
				OFFSET 0.430247 -32.302673 3.732800
				CHANNELS 3 Xrotation Yrotation Zrotation
				JOINT LeftFoot
				{
					OFFSET -0.430247 -48.264931 -6.423300
					CHANNELS 3 Xrotation Yrotation Zrotation
					JOINT LeftToeBase
					{
						OFFSET 4.230900 -16.068199 23.438400
						CHANNELS 3 Xrotation Yrotation Zrotation
						JOINT LeftToe_End
						{
							OFFSET 4.510700 0.695400 19.974600
							CHANNELS 3 Xrotation Yrotation Zrotation
							End Site
							{
								OFFSET 0 0 0
							}
						}
					}
				}
			}
		}
	}
	JOINT RightUpLeg_virtual
	{
		OFFSET 0.000000 0.000000 0.000000
		CHANNELS 3 Xrotation Yrotation Zrotation
		JOINT RightUpLeg
		{
			OFFSET -11.333700 -6.187798 -0.413800
			CHANNELS 3 Xrotation Yrotation Zrotation
			JOINT RightLeg
			{
				OFFSET -0.430392 -32.302628 3.733000
				CHANNELS 3 Xrotation Yrotation Zrotation
				JOINT RightFoot
				{
					OFFSET 0.430392 -48.264973 -6.423500
					CHANNELS 3 Xrotation Yrotation Zrotation
					JOINT RightToeBase
					{
						OFFSET -4.230900 -16.068199 23.438400
						CHANNELS 3 Xrotation Yrotation Zrotation
						JOINT RightToe_End
						{
							OFFSET -4.510700 0.695400 19.974600
							CHANNELS 3 Xrotation Yrotation Zrotation
							End Site
							{
								OFFSET 0 0 0
							}
						}
					}
				}
			}
		}
	}
	JOINT Spine_virtual
	{
		OFFSET 0.000000 0.000000 0.000000
		CHANNELS 3 Xrotation Yrotation Zrotation
		JOINT Spine
		{
			OFFSET -0.002400 12.777504 0.315300
			CHANNELS 3 Xrotation Yrotation Zrotation
			JOINT Spine1
			{
				OFFSET -0.002067 5.816869 0.032633
				CHANNELS 3 Xrotation Yrotation Zrotation
				JOINT Spine1_split
				{
					OFFSET -0.002067 5.816869 0.032633
					CHANNELS 3 Xrotation Yrotation Zrotation
					JOINT Spine2
					{
						OFFSET -0.002067 5.816869 0.032633
						CHANNELS 3 Xrotation Yrotation Zrotation
						JOINT Neck_virtual
						{
							OFFSET 0.000000 0.000000 0.000000
							CHANNELS 3 Xrotation Yrotation Zrotation
							JOINT Neck
							{
								OFFSET -0.003700 21.199493 -0.826900
								CHANNELS 3 Xrotation Yrotation Zrotation
								JOINT Head
								{
									OFFSET 0.000000 20.442200 4.834800
									CHANNELS 3 Xrotation Yrotation Zrotation
									JOINT HeadTop_End
									{
										OFFSET 0.000000 34.668396 4.968400
										CHANNELS 3 Xrotation Yrotation Zrotation
										End Site
										{
											OFFSET 0 0 0
										}
									}
								}
							}
						}
						JOINT LeftShoulder_virtual
						{
							OFFSET 0.000000 0.000000 0.000000
							CHANNELS 3 Xrotation Yrotation Zrotation
							JOINT LeftShoulder
							{
								OFFSET 3.288150 8.794197 -1.372250
								CHANNELS 3 Xrotation Yrotation Zrotation
								JOINT LeftShoulder_split
								{
									OFFSET 3.288150 8.794197 -1.372250
									CHANNELS 3 Xrotation Yrotation Zrotation
									JOINT LeftArm
									{
										OFFSET 11.953299 -2.279007 -0.146200
										CHANNELS 3 Xrotation Yrotation Zrotation
										JOINT LeftForeArm
										{
											OFFSET 18.448900 0.000000 0.000000
											CHANNELS 3 Xrotation Yrotation Zrotation
											JOINT LeftHand
											{
												OFFSET 29.527798 0.000000 0.000000
												CHANNELS 3 Xrotation Yrotation Zrotation
												End Site
												{
													OFFSET 0 0 0
												}
											}
										}
									}
								}
							}
						}
						JOINT RightShoulder_virtual
						{
							OFFSET 0.000000 0.000000 0.000000
							CHANNELS 3 Xrotation Yrotation Zrotation
							JOINT RightShoulder
							{
								OFFSET -3.249400 8.794197 -1.372250
								CHANNELS 3 Xrotation Yrotation Zrotation
								JOINT RightShoulder_split
								{
									OFFSET -3.249400 8.794197 -1.372250
									CHANNELS 3 Xrotation Yrotation Zrotation
									JOINT RightArm
									{
										OFFSET -11.953299 -2.279007 -0.146200
										CHANNELS 3 Xrotation Yrotation Zrotation
										JOINT RightForeArm
										{
											OFFSET -18.448900 0.000000 0.000000
											CHANNELS 3 Xrotation Yrotation Zrotation
											JOINT RightHand
											{
												OFFSET -29.527802 0.000000 0.000000
												CHANNELS 3 Xrotation Yrotation Zrotation
												End Site
												{
													OFFSET 0 0 0
												}
											}
										}
									}
								}
							}
						}
					}
				}
			}
		}
	}
}
MOTION
Frames: 5
Frame Time: 0.03333333
0.341409 98.380219 -46.096390 0.000000 0.000000 0.000000 171.443841 -68.177828 173.331213 -34.390504 9.711607 14.836564 37.741481 2.336824 0.025317 1.542745 -2.820811 2.522726 -0.511590 6.535626 -9.092607 0.000000 0.000000 0.000000 170.752544 -65.774503 173.286175 -15.955549 -10.484132 3.160238 18.833560 3.796398 -4.293190 -3.587034 3.357904 -5.088266 -2.712323 -8.673454 -2.304604 0.000000 0.000000 0.000000 169.474424 -67.672251 171.282744 3.883810 2.807153 3.750858 -3.279388 1.447020 -1.894193 0.781458 -2.562296 0.480746 0.000000 0.000000 0.000000 -4.386791 1.817993 -1.801610 1.870580 18.415829 7.567901 0.707921 32.075118 -14.757920 0.000000 0.000000 0.000000 -4.965840 2.184683 -1.916710 1.208249 -0.003763 2.244438 1.194492 -0.616569 -1.790651 12.634897 -1.411861 -66.486380 8.002601 -20.632606 -8.284978 0.000000 0.000000 0.000000 -4.598948 1.945830 -2.519504 2.500153 -5.150647 18.387405 -5.318243 -1.646265 -1.404046 11.493074 31.473051 53.912329 15.820994 28.275843 -0.253919 0.000000 0.000000 0.000000 
-0.772449 98.752739 -47.814354 0.000000 0.000000 0.000000 171.865673 -62.549745 173.655893 -36.672167 2.651978 10.326370 37.231914 2.500790 0.661003 4.042171 -2.391097 1.762264 -1.610387 7.269629 -9.558247 0.000000 0.000000 0.000000 171.256857 -59.491166 173.850034 -15.664648 -7.815565 4.646167 18.822579 6.403836 -3.921244 -2.990576 3.036244 -6.586232 -2.725650 -8.470406 -2.544600 0.000000 0.000000 0.000000 170.953283 -61.565788 172.436240 4.151609 3.330844 3.623059 -3.222782 1.941375 -1.996380 0.811692 -2.418109 0.615336 0.000000 0.000000 0.000000 -4.316636 2.276112 -2.015600 1.844251 16.853167 7.517046 0.297008 29.198413 -13.682311 0.000000 0.000000 0.000000 -5.007037 2.654338 -2.046888 1.052024 0.155761 2.335701 1.398222 -0.897370 -1.630872 14.188829 -0.649654 -67.581696 9.189790 -19.898505 -8.520924 0.000000 0.000000 0.000000 -4.515258 2.412231 -2.696877 2.521739 -5.556489 18.240215 -5.092725 -1.717206 -0.959123 10.352200 33.519836 53.967845 16.132680 27.466714 -0.853616 0.000000 0.000000 0.000000 
-2.039864 98.967667 -49.695236 0.000000 0.000000 0.000000 172.035690 -56.808049 173.752267 -39.435764 -3.496392 6.084184 35.114836 2.098422 1.467357 6.562086 -2.349152 -0.008879 -3.791600 8.024454 -9.973232 0.000000 0.000000 0.000000 171.743426 -53.199237 174.426926 -15.133937 -5.244735 6.118518 19.639244 8.675424 -3.635389 -2.801241 2.603473 -8.427411 -2.305606 -8.217420 -2.595182 0.000000 0.000000 0.000000 172.073666 -55.448890 173.287964 4.399438 3.731845 3.268369 -3.051410 2.313351 -1.918356 0.780853 -2.065301 0.678564 0.000000 0.000000 0.000000 -4.127198 2.622249 -2.039016 1.851648 15.034112 7.058186 -0.410332 25.439369 -12.065680 0.000000 0.000000 0.000000 -4.961457 3.005012 -1.962264 0.890518 0.344587 2.275838 1.611014 -1.212846 -1.453134 15.436468 -0.106659 -68.747056 10.066062 -18.217057 -8.921650 0.000000 0.000000 0.000000 -4.346924 2.747961 -2.648002 2.591379 -5.970049 17.956902 -4.871786 -1.654638 -0.507676 8.988870 35.756505 54.330767 16.176518 26.305791 -1.353924 0.000000 0.000000 0.000000 
-3.408417 98.874130 -51.666878 0.000000 0.000000 0.000000 172.265116 -50.924415 174.000790 -42.556849 -8.267140 2.547749 31.853639 1.303340 2.202916 9.219473 -2.533463 -2.394069 -5.472932 8.680231 -10.694982 0.000000 0.000000 0.000000 172.270854 -47.020375 175.035755 -14.689686 -2.969069 7.416779 21.477752 10.778821 -3.556034 -2.482770 2.216918 -10.264677 -2.307086 -7.902969 -2.803861 0.000000 0.000000 0.000000 173.032543 -49.618620 174.101918 4.722036 3.986331 2.733605 -2.771697 2.543834 -1.679393 0.860048 -1.581136 0.616506 0.000000 0.000000 0.000000 -3.823418 2.834453 -1.881531 1.899532 13.003194 6.255681 -1.231484 20.977273 -10.106150 0.000000 0.000000 0.000000 -4.823752 3.223617 -1.687646 0.744433 0.632216 2.055826 1.893204 -1.598150 -1.261734 16.377530 0.328351 -69.849756 10.552890 -16.212975 -9.440419 0.000000 0.000000 0.000000 -4.114020 2.935041 -2.407851 2.710481 -6.380945 17.534238 -4.594300 -1.477736 -0.054778 7.454924 38.030982 55.066078 15.997305 25.128211 -1.802232 0.000000 0.000000 0.000000 
-4.772909 98.503998 -53.924828 0.000000 0.000000 0.000000 172.593129 -45.047707 174.426407 -46.120296 -11.499966 -0.078643 28.216657 0.389854 2.659070 12.642030 -2.651755 -5.135515 -5.001400 9.047376 -11.952795 0.000000 0.000000 0.000000 172.838060 -41.102091 175.584670 -14.466585 -1.159223 8.405166 23.776671 12.861830 -3.686049 -1.758197 2.196370 -11.682254 -3.004869 -7.473002 -3.328098 0.000000 0.000000 0.000000 173.872656 -44.107750 174.908727 5.191699 4.095848 2.135270 -2.404513 2.640194 -1.335862 0.783169 -0.901935 0.502201 0.000000 0.000000 0.000000 -3.451215 2.914836 -1.585982 1.932557 10.813205 5.258610 -1.967312 16.086444 -8.020065 0.000000 0.000000 0.000000 -4.574062 3.324740 -1.293042 0.637131 1.033844 1.686421 2.184890 -2.116841 -1.100083 17.132433 0.740966 -70.764462 10.701249 -14.554889 -9.965719 0.000000 0.000000 0.000000 -3.820003 2.988393 -2.050280 2.854043 -6.795535 16.979843 -4.274979 -1.240748 0.328415 5.942198 40.202244 56.025559 15.669181 24.239334 -2.275265 0.000000 0.000000 0.000000 
